<svg id="Layer_1" data-name="Layer 1" xmlns="http://www.w3.org/2000/svg" viewBox="0 0 24 24"><path d="M21,14V10H18.71a7.11,7.11,0,0,0-.62-1.44l1.67-1.67L16.93,4.06,15.21,5.78A7.47,7.47,0,0,0,14,5.29V3H10V5.29a7.42,7.42,0,0,0-1.3.54L6.93,4.06,4.1,6.89,5.86,8.64A7.1,7.1,0,0,0,5.29,10H3v4H5.29a7.47,7.47,0,0,0,.49,1.21L4.1,16.89l2.83,2.83,1.63-1.63a7.11,7.11,0,0,0,1.44.62V21h4V18.71a7.1,7.1,0,0,0,1.36-.57l1.57,1.58,2.83-2.83L18.17,15.3a7.42,7.42,0,0,0,.54-1.3Zm-9,2a4,4,0,1,1,4-4A4,4,0,0,1,12,16Z"/></svg>